<?xml version="1.0" encoding="utf-8"?>
<!-- Generator: Adobe Illustrator 27.5.0, SVG Export Plug-In . SVG Version: 6.00 Build 0)  -->
<svg version="1.1" xmlns="http://www.w3.org/2000/svg" xmlns:xlink="http://www.w3.org/1999/xlink" x="0px" y="0px"
	 viewBox="0 0 500 500" style="enable-background:new 0 0 500 500;" xml:space="preserve">
<g id="Background_Complete">
	<g>
		<rect y="382.398" style="fill:#EBEBEB;" width="500" height="0.25"/>
		<rect x="52.459" y="391.922" style="fill:#EBEBEB;" width="33.122" height="0.25"/>
		<rect x="171.14" y="389.208" style="fill:#EBEBEB;" width="46.749" height="0.25"/>
		<rect x="112.804" y="399.653" style="fill:#EBEBEB;" width="19.192" height="0.25"/>
		<rect x="312.333" y="395.306" style="fill:#EBEBEB;" width="30.208" height="0.25"/>
		<rect x="351.444" y="395.306" style="fill:#EBEBEB;" width="19.319" height="0.25"/>
		<rect x="391.346" y="399.528" style="fill:#EBEBEB;" width="58.556" height="0.25"/>
		<path style="fill:#EBEBEB;" d="M237.014,337.8H43.915c-3.147,0-5.708-2.561-5.708-5.708V60.66c0-3.147,2.561-5.708,5.708-5.708
			h193.099c3.146,0,5.707,2.561,5.707,5.708v271.432C242.721,335.239,240.16,337.8,237.014,337.8z M43.915,55.203
			c-3.01,0-5.458,2.448-5.458,5.458v271.432c0,3.01,2.448,5.458,5.458,5.458h193.099c3.009,0,5.457-2.448,5.457-5.458V60.66
			c0-3.009-2.448-5.458-5.457-5.458H43.915z"/>
		<path style="fill:#EBEBEB;" d="M453.31,337.8H260.212c-3.147,0-5.707-2.561-5.707-5.708V60.66c0-3.147,2.561-5.708,5.707-5.708
			H453.31c3.148,0,5.708,2.561,5.708,5.708v271.432C459.019,335.239,456.458,337.8,453.31,337.8z M260.212,55.203
			c-3.009,0-5.457,2.448-5.457,5.458v271.432c0,3.01,2.448,5.458,5.457,5.458H453.31c3.01,0,5.458-2.448,5.458-5.458V60.66
			c0-3.009-2.448-5.458-5.458-5.458H260.212z"/>
	</g>
	<g>
		<g>
			<g>
				
					<rect x="89.508" y="96.332" transform="matrix(-1 -1.224647e-16 1.224647e-16 -1 416.9457 341.5539)" style="fill:#F0F0F0;" width="237.929" height="148.889"/>
				
					<rect x="141.028" y="56.468" transform="matrix(-1.836970e-16 1 -1 -1.836970e-16 379.2498 -37.696)" style="fill:#FAFAFA;" width="134.889" height="228.618"/>
				<polygon style="fill:#FFFFFF;" points="292.686,238.221 269.234,103.332 251.943,103.332 275.395,238.221 				"/>
				<polygon style="fill:#FFFFFF;" points="271.405,238.221 247.953,103.332 240.217,103.332 263.669,238.221 				"/>
				<polygon style="fill:#FFFFFF;" points="233.561,238.221 210.11,103.332 192.819,103.332 216.271,238.221 				"/>
				<polygon style="fill:#FFFFFF;" points="189.966,238.221 166.514,103.332 158.778,103.332 182.23,238.221 				"/>
				
					<rect x="194.682" y="170.186" transform="matrix(-1.836970e-16 1 -1 -1.836970e-16 432.9037 -91.35)" style="fill:#E0E0E0;" width="134.889" height="1.182"/>
				
					<rect x="254.747" y="170.186" transform="matrix(-1.836970e-16 1 -1 -1.836970e-16 492.9678 -151.4141)" style="fill:#E0E0E0;" width="134.889" height="1.182"/>
				
					<rect x="197.601" y="168.449" transform="matrix(-1.836970e-16 1 -1 -1.836970e-16 435.8224 -94.2686)" style="fill:#F0F0F0;" width="134.889" height="4.655"/>
				<g>
					
						<rect x="136.964" y="170.186" transform="matrix(-1.836970e-16 1 -1 -1.836970e-16 375.1855 -33.6318)" style="fill:#E0E0E0;" width="134.889" height="1.182"/>
					
						<rect x="139.883" y="168.449" transform="matrix(-1.836970e-16 1 -1 -1.836970e-16 378.1042 -36.5505)" style="fill:#F0F0F0;" width="134.889" height="4.655"/>
				</g>
				<g>
					
						<rect x="79.218" y="170.186" transform="matrix(-1.836970e-16 1 -1 -1.836970e-16 317.4398 24.1139)" style="fill:#E0E0E0;" width="134.889" height="1.182"/>
					
						<rect x="82.137" y="168.449" transform="matrix(-1.836970e-16 1 -1 -1.836970e-16 320.3585 21.1952)" style="fill:#F0F0F0;" width="134.889" height="4.655"/>
				</g>
				
					<rect x="14.473" y="170.186" transform="matrix(-1.836970e-16 1 -1 -1.836970e-16 259.6943 81.8594)" style="fill:#E0E0E0;" width="148.889" height="1.182"/>
			</g>
			<path style="fill:#E0E0E0;" d="M65.333,86.111H338c0.856,0,1.556-0.7,1.556-1.555l0,0c0-0.856-0.7-1.556-1.556-1.556H65.333
				c-0.855,0-1.555,0.7-1.555,1.556l0,0C63.778,85.411,64.478,86.111,65.333,86.111z"/>
			<g style="opacity:0.6;">
				
					<rect x="230.731" y="80.001" transform="matrix(-1 -1.224647e-16 1.224647e-16 -1 564.9187 431.6686)" style="fill:#F5F5F5;" width="103.457" height="271.667"/>
				<polygon style="fill:#E6E6E6;" points="293.642,353.89 302.314,353.89 299.88,82.223 296,82.223 				"/>
				<polygon style="fill:#E6E6E6;" points="312.774,353.89 316.958,353.89 315.783,82.223 313.912,82.223 				"/>
				<polygon style="fill:#E6E6E6;" points="268.5,353.89 272.684,353.89 271.51,82.223 269.638,82.223 				"/>
				<polygon style="fill:#E6E6E6;" points="247.199,353.89 251.382,353.89 250.208,82.223 248.337,82.223 				"/>
			</g>
			<g style="opacity:0.6;">
				
					<rect x="70.671" y="80" transform="matrix(-1 -1.224647e-16 1.224647e-16 -1 193.0714 431.666)" style="fill:#F5F5F5;" width="51.729" height="271.667"/>
				<polygon style="fill:#E6E6E6;" points="102.127,353.889 106.463,353.889 105.246,82.222 103.306,82.222 				"/>
				<polygon style="fill:#E6E6E6;" points="111.693,353.889 113.785,353.889 113.198,82.222 112.262,82.222 				"/>
				<polygon style="fill:#E6E6E6;" points="89.556,353.889 91.648,353.889 91.061,82.222 90.125,82.222 				"/>
				<polygon style="fill:#E6E6E6;" points="78.905,353.889 80.997,353.889 80.41,82.222 79.474,82.222 				"/>
			</g>
		</g>
		<g>
			<g>
				<g>
					<g>
						<rect x="361.104" y="122" style="fill:#E6E6E6;" width="68.631" height="85.662"/>
						<rect x="362.132" y="122" style="fill:#F5F5F5;" width="70.619" height="85.662"/>
						
							<rect x="360.69" y="134.934" transform="matrix(-1.836970e-16 1 -1 -1.836970e-16 562.2719 -232.6102)" style="fill:#FAFAFA;" width="73.501" height="59.793"/>
						
							<rect x="390.308" y="164.552" transform="matrix(-1.836970e-16 1 -1 -1.836970e-16 591.8898 -262.2281)" style="fill:#E6E6E6;" width="73.501" height="0.557"/>
					</g>
				</g>
			</g>
			
				<ellipse transform="matrix(0.7071 -0.7071 0.7071 0.7071 11.5942 335.7775)" style="fill:#F0F0F0;" cx="411.116" cy="153.893" rx="8.642" ry="8.642"/>
			
				<ellipse transform="matrix(0.7071 -0.7071 0.7071 0.7071 -1.6133 329.8085)" style="fill:#FFFFFF;" cx="397.307" cy="166.852" rx="17.559" ry="17.559"/>
			
				<ellipse transform="matrix(0.2298 -0.9732 0.9732 0.2298 146.2677 492.6035)" style="fill:#F0F0F0;" cx="384.349" cy="153.893" rx="8.642" ry="8.642"/>
		</g>
		<g>
			<g>
				<rect x="349.68" y="280.361" style="fill:#F0F0F0;" width="9.377" height="95.617"/>
				<rect x="347.396" y="274.644" style="fill:#F0F0F0;" width="99.823" height="5.717"/>
				<rect x="353.5" y="375.978" style="fill:#F0F0F0;" width="87.614" height="6.421"/>
				<rect x="359.056" y="280.361" style="fill:#FAFAFA;" width="85.879" height="95.617"/>
				
					<rect x="366.88" y="291.011" transform="matrix(-1 -1.224647e-16 1.224647e-16 -1 803.9915 611.3613)" style="fill:#F0F0F0;" width="70.232" height="29.339"/>
				
					<rect x="366.88" y="334.165" transform="matrix(-1 -1.224647e-16 1.224647e-16 -1 803.9915 697.6693)" style="fill:#F0F0F0;" width="70.232" height="29.339"/>
				<path style="fill:#FAFAFA;" d="M410.001,293.842h-16.01c-1.001,0-1.82-0.819-1.82-1.82v-0.917c0-1.001,0.819-1.82,1.82-1.82
					h16.01c1.001,0,1.82,0.819,1.82,1.82v0.917C411.821,293.022,411.002,293.842,410.001,293.842z"/>
				<path style="fill:#FAFAFA;" d="M410.001,336.996h-16.01c-1.001,0-1.82-0.819-1.82-1.82v-0.917c0-1.001,0.819-1.82,1.82-1.82
					h16.01c1.001,0,1.82,0.819,1.82,1.82v0.917C411.821,336.177,411.002,336.996,410.001,336.996z"/>
			</g>
		</g>
		<g>
			
				<ellipse transform="matrix(0.9871 -0.1602 0.1602 0.9871 -55.3712 34.7889)" style="fill:#EBEBEB;" cx="188.095" cy="360.839" rx="21.56" ry="21.56"/>
			
				<ellipse transform="matrix(0.9871 -0.1602 0.1602 0.9871 -54.9421 29.4158)" style="fill:#F5F5F5;" cx="154.983" cy="355.49" rx="26.908" ry="26.908"/>
		</g>
	</g>
</g>
<g id="Background_Simple" style="display:none;">
	<g style="display:inline;">
		<path style="fill:#407BFF;" d="M178.953,363.665c-57.623-8.702-46.048-60.748-31.631-90.537
			c17.942-37.071,35.626-63.096,31.713-106.521c-3.129-34.73-15.485-76.28,25.199-94.709c33.348-15.105,72.574,3.897,94.297,32.124
			c19.323,25.109,19.72,56.049,40.371,81.068c13.234,16.034,29.764,30.42,39.756,48.226c10.802,19.25,7.323,40.735-4.524,56.954
			c-20.585,28.183-59.986,27.002-92.978,37.832C249.189,338.598,216.705,369.366,178.953,363.665z"/>
		<path style="opacity:0.9;fill:#FFFFFF;" d="M178.953,363.665c-57.623-8.702-46.048-60.748-31.631-90.537
			c17.942-37.071,35.626-63.096,31.713-106.521c-3.129-34.73-15.485-76.28,25.199-94.709c33.348-15.105,72.574,3.897,94.297,32.124
			c19.323,25.109,19.72,56.049,40.371,81.068c13.234,16.034,29.764,30.42,39.756,48.226c10.802,19.25,7.323,40.735-4.524,56.954
			c-20.585,28.183-59.986,27.002-92.978,37.832C249.189,338.598,216.705,369.366,178.953,363.665z"/>
	</g>
</g>
<g id="Shadow_1_">
	<ellipse id="_x3C_Path_x3E__29_" style="fill:#F5F5F5;" cx="250" cy="416.238" rx="193.889" ry="11.323"/>
</g>
<g id="Confetti">
	<path style="fill:#407BFF;" d="M126.607,197.544c-6.604,0-9.715-6.651-9.846-6.938c-0.301-0.66-0.01-1.439,0.65-1.741
		c0.659-0.3,1.437-0.01,1.739,0.647c0.039,0.085,2.633,5.542,7.659,5.401c0.725-0.041,1.329,0.552,1.349,1.277
		c0.02,0.725-0.551,1.329-1.277,1.349C126.789,197.542,126.698,197.544,126.607,197.544z"/>
	<g>
		<path style="fill:#407BFF;" d="M212.962,105.186c-0.977,0-1.634-0.095-1.723-0.109c-0.717-0.11-1.209-0.78-1.099-1.498
			c0.11-0.716,0.778-1.211,1.494-1.1l0,0c0.061,0.009,6.071,0.846,8.716-3.444c0.381-0.618,1.19-0.809,1.808-0.429
			c0.618,0.381,0.809,1.19,0.429,1.808C220.025,104.569,215.453,105.186,212.962,105.186z"/>
		<path style="opacity:0.6;fill:#FFFFFF;" d="M212.962,105.186c-0.977,0-1.634-0.095-1.723-0.109
			c-0.717-0.11-1.209-0.78-1.099-1.498c0.11-0.716,0.778-1.211,1.494-1.1l0,0c0.061,0.009,6.071,0.846,8.716-3.444
			c0.381-0.618,1.19-0.809,1.808-0.429c0.618,0.381,0.809,1.19,0.429,1.808C220.025,104.569,215.453,105.186,212.962,105.186z"/>
	</g>
	<g>
		<path style="fill:#407BFF;" d="M64.604,155.267c-3.82,0-6.938-2.106-7.123-2.233c-0.597-0.412-0.748-1.23-0.336-1.827
			c0.411-0.597,1.227-0.749,1.824-0.338l0,0c0.05,0.034,5.095,3.407,9.346,0.701c0.612-0.389,1.424-0.209,1.814,0.402
			c0.39,0.612,0.21,1.424-0.402,1.814C68.007,154.88,66.24,155.267,64.604,155.267z"/>
		<path style="opacity:0.6;fill:#FFFFFF;" d="M64.604,155.267c-3.82,0-6.938-2.106-7.123-2.233c-0.597-0.412-0.748-1.23-0.336-1.827
			c0.411-0.597,1.227-0.749,1.824-0.338l0,0c0.05,0.034,5.095,3.407,9.346,0.701c0.612-0.389,1.424-0.209,1.814,0.402
			c0.39,0.612,0.21,1.424-0.402,1.814C68.007,154.88,66.24,155.267,64.604,155.267z"/>
	</g>
	<g>
		<path style="fill:#407BFF;" d="M407.627,120.204c-3.821,0-6.938-2.106-7.123-2.233c-0.597-0.412-0.748-1.229-0.336-1.827
			c0.411-0.597,1.227-0.748,1.824-0.338l0,0c0.05,0.034,5.095,3.408,9.346,0.701c0.612-0.389,1.424-0.209,1.814,0.402
			c0.39,0.612,0.21,1.424-0.402,1.813C411.03,119.817,409.264,120.204,407.627,120.204z"/>
		<path style="opacity:0.6;fill:#FFFFFF;" d="M407.627,120.204c-3.821,0-6.938-2.106-7.123-2.233
			c-0.597-0.412-0.748-1.229-0.336-1.827c0.411-0.597,1.227-0.748,1.824-0.338l0,0c0.05,0.034,5.095,3.408,9.346,0.701
			c0.612-0.389,1.424-0.209,1.814,0.402c0.39,0.612,0.21,1.424-0.402,1.813C411.03,119.817,409.264,120.204,407.627,120.204z"/>
	</g>
	<g>
		<path style="fill:#407BFF;" d="M246.806,223.487c-6.125,0-9.469-5.94-9.616-6.206c-0.35-0.635-0.118-1.434,0.517-1.784
			c0.635-0.349,1.432-0.119,1.783,0.515c0.042,0.075,3.041,5.313,8.043,4.811c0.722-0.074,1.367,0.45,1.441,1.172
			c0.074,0.722-0.45,1.367-1.172,1.441C247.462,223.471,247.13,223.487,246.806,223.487z"/>
		<path style="opacity:0.6;fill:#FFFFFF;" d="M246.806,223.487c-6.125,0-9.469-5.94-9.616-6.206
			c-0.35-0.635-0.118-1.434,0.517-1.784c0.635-0.349,1.432-0.119,1.783,0.515c0.042,0.075,3.041,5.313,8.043,4.811
			c0.722-0.074,1.367,0.45,1.441,1.172c0.074,0.722-0.45,1.367-1.172,1.441C247.462,223.471,247.13,223.487,246.806,223.487z"/>
	</g>
	<g>
		<path style="fill:#407BFF;" d="M79.005,250.205c-0.59,0-1.127-0.401-1.274-1c-0.173-0.704,0.256-1.414,0.958-1.589l0,0
			c0.059-0.015,5.931-1.547,6.729-6.522c0.115-0.716,0.789-1.202,1.505-1.089c0.716,0.115,1.204,0.789,1.089,1.505
			c-1.076,6.709-8.382,8.581-8.692,8.657C79.214,250.192,79.109,250.205,79.005,250.205z"/>
		<path style="opacity:0.6;" d="M79.005,250.205c-0.59,0-1.127-0.401-1.274-1c-0.173-0.704,0.256-1.414,0.958-1.589l0,0
			c0.059-0.015,5.931-1.547,6.729-6.522c0.115-0.716,0.789-1.202,1.505-1.089c0.716,0.115,1.204,0.789,1.089,1.505
			c-1.076,6.709-8.382,8.581-8.692,8.657C79.214,250.192,79.109,250.205,79.005,250.205z"/>
	</g>
	<g>
		<path style="fill:#407BFF;" d="M370.959,159.053c-0.591,0-1.127-0.401-1.275-1c-0.173-0.704,0.256-1.414,0.958-1.589l0,0
			c0.059-0.015,5.931-1.547,6.729-6.522c0.115-0.717,0.789-1.204,1.505-1.089c0.716,0.115,1.204,0.789,1.089,1.505
			c-1.077,6.708-8.382,8.581-8.692,8.657C371.169,159.04,371.063,159.053,370.959,159.053z"/>
		<path style="opacity:0.6;" d="M370.959,159.053c-0.591,0-1.127-0.401-1.275-1c-0.173-0.704,0.256-1.414,0.958-1.589l0,0
			c0.059-0.015,5.931-1.547,6.729-6.522c0.115-0.717,0.789-1.204,1.505-1.089c0.716,0.115,1.204,0.789,1.089,1.505
			c-1.077,6.708-8.382,8.581-8.692,8.657C371.169,159.04,371.063,159.053,370.959,159.053z"/>
	</g>
	<path style="fill:#407BFF;" d="M424.732,208.906c-0.075,0-0.15-0.006-0.226-0.02c-0.315-0.055-7.732-1.417-9.269-8.037
		c-0.164-0.706,0.276-1.412,0.982-1.576c0.707-0.165,1.413,0.276,1.577,0.982c1.14,4.909,7.103,6.032,7.163,6.043
		c0.713,0.128,1.189,0.809,1.064,1.521C425.91,208.458,425.357,208.906,424.732,208.906z"/>
	<path style="fill:#407BFF;" d="M401.293,257.117c-2.014,0-4.263-0.522-6.285-2.206c-0.558-0.464-0.633-1.292-0.169-1.85
		c0.464-0.558,1.292-0.634,1.85-0.169c3.873,3.223,9.305,0.518,9.359,0.491c0.645-0.329,1.436-0.074,1.767,0.571
		c0.33,0.645,0.078,1.434-0.565,1.766C407.074,255.809,404.478,257.117,401.293,257.117z"/>
	<path style="fill:#407BFF;" d="M339.948,93.014c-0.218,0-0.44-0.055-0.644-0.17c-0.278-0.157-6.808-3.93-6.036-10.68
		c0.082-0.721,0.734-1.236,1.454-1.156c0.721,0.083,1.238,0.734,1.156,1.455c-0.573,5.006,4.668,8.065,4.721,8.096
		c0.629,0.359,0.849,1.161,0.491,1.791C340.849,92.774,340.405,93.014,339.948,93.014z"/>
	<path style="fill:#407BFF;" d="M78.794,98.33c-0.674,0-1.248-0.516-1.307-1.2c-0.063-0.723,0.473-1.359,1.195-1.422
		c5.021-0.435,6.976-6.18,6.995-6.237c0.227-0.688,0.968-1.064,1.657-0.838c0.688,0.226,1.065,0.963,0.841,1.652
		c-0.099,0.304-2.496,7.454-9.266,8.04C78.87,98.328,78.832,98.33,78.794,98.33z"/>
</g>
<g id="Character_1">
	<g>
		<path style="fill:#263238;" d="M176.364,137.905c-3.555,1.651-6.684,9.638-5.667,21.095c1.018,11.457-22.722,3.42-25.944,16.258
			c-5.833,23.242,33.257,37.208,49.918,23.242c10.306-8.639,19.998-37.118,18.582-52.656
			C211.73,129.133,185.809,117.921,176.364,137.905z"/>
		<g>
			<path style="fill:#7F3E3B;" d="M213.867,167.218c0.443-0.123,1.08-0.318,1.63-0.499l1.723-0.577
				c1.149-0.403,2.291-0.843,3.417-1.316c2.257-0.936,4.476-1.961,6.585-3.146c4.201-2.36,8.133-5.224,11.107-8.686
				c2.828-3.365,4.864-7.949,6.448-12.644c0.813-2.358,1.492-4.793,2.077-7.26c0.615-2.448,1.122-4.995,1.548-7.435l4.08,0.258
				c0.019,5.454-0.597,10.736-1.756,16.086c-0.601,2.661-1.366,5.317-2.409,7.937c-1.053,2.611-2.331,5.223-4.166,7.653
				c-3.564,4.693-8.05,8.302-12.863,11.145c-2.408,1.422-4.888,2.682-7.439,3.766c-1.279,0.534-2.572,1.029-3.885,1.487
				c-0.656,0.229-1.317,0.451-1.989,0.655c-0.694,0.206-1.308,0.384-2.127,0.586L213.867,167.218z"/>
			<path style="fill:#7F3E3B;" d="M252.463,127.286l1.701-6.109l-6.753,0.526c0,0-0.484,3.999,1.852,6.408L252.463,127.286z"/>
			<polygon style="fill:#7F3E3B;" points="255.172,114.068 249.008,115.679 247.411,121.703 254.164,121.177 			"/>
			<path style="fill:#407BFF;" d="M206.227,168.776c3.112-2.823,11.014-4.979,11.014-4.979l8.652,13.058
				c0,0-9.873,6.584-14.067,5.054C207.459,180.315,203.325,171.408,206.227,168.776z"/>
		</g>
		<polygon style="fill:#7F3E3B;" points="177.738,353.694 183.126,359.608 198.599,348.587 193.212,342.673 		"/>
		<polygon style="fill:#7F3E3B;" points="147.316,377.078 154.546,380.666 165.181,365.076 157.951,361.487 		"/>
		<path style="fill:#263238;" d="M155.699,379.782l-5.577-7.151c-0.203-0.26-0.548-0.33-0.831-0.169l-6.293,3.598
			c-0.653,0.373-0.814,1.311-0.336,1.903c1.987,2.46,3.071,3.547,5.523,6.691c1.509,1.935,4.562,6.435,6.646,9.107
			c2.038,2.613,4.836,0.754,4.208-0.546c-2.818-5.824-3.003-9.284-2.902-12.065C156.156,380.65,155.996,380.163,155.699,379.782z"/>
		<path style="fill:#263238;" d="M184.743,359.725l-3.678-8.841c-0.134-0.322-0.478-0.519-0.828-0.475l-7.795,0.988
			c-0.809,0.102-1.273,0.922-0.951,1.661c1.338,3.067,2.147,4.501,3.765,8.389c0.995,2.392,3.319,8.678,4.693,11.981
			c1.344,3.231,4.891,2.547,4.631,1.088c-1.167-6.545-0.776-10.761,0.2-13.337C184.956,360.714,184.939,360.195,184.743,359.725z"/>
		<polygon style="opacity:0.2;" points="198.594,348.589 190.619,354.271 184.594,348.807 193.204,342.672 		"/>
		<polygon style="opacity:0.2;" points="157.946,361.491 165.18,365.081 159.694,373.115 152.461,369.525 		"/>
		<path style="fill:#407BFF;" d="M217.115,169.787c0,0,0.246-0.357-4.131,47.428c-12.977,0.908-26.388,1.847-32.703,2.289
			c-0.383-13.348,0.617-22.76-5.616-50.174c0,0,6.877-1.458,13.93-1.761c5.518-0.237,10.039-0.389,14.886,0.079
			C209.873,168.265,217.115,169.787,217.115,169.787z"/>
		<path style="fill:#7F3E3B;" d="M177.133,177.253c-2.431-1.127-4.562-2.319-6.771-3.589c-2.184-1.265-4.3-2.639-6.383-4.077
			c-4.161-2.878-8.15-6.082-11.745-9.822l-1.328-1.426l-0.336-0.363c-0.191-0.226-0.393-0.459-0.549-0.693
			c-0.342-0.472-0.583-0.942-0.803-1.409c-0.801-1.854-0.92-3.463-0.961-4.938c-0.03-2.943,0.482-5.515,1.082-8.029
			c1.294-4.995,3.047-9.617,5.263-14.155l3.813,1.473c-0.584,2.274-1.149,4.632-1.641,6.945c-0.511,2.316-0.92,4.642-1.208,6.922
			c-0.293,2.263-0.45,4.551-0.259,6.478c0.09,0.945,0.339,1.792,0.559,2.157c0.056,0.075,0.099,0.147,0.129,0.157
			c0.013,0.021,0.025,0.005,0.027,0.014l0.303,0.288l1.232,1.175c3.344,3.094,7.098,5.862,10.99,8.442
			c1.946,1.294,3.975,2.475,5.993,3.667c2.001,1.171,4.144,2.317,6.096,3.308L177.133,177.253z"/>
		<path style="fill:#407BFF;" d="M187.54,171.157c-3.715-5.171-10.964-5.09-10.964-5.09l-8.784,12.97c0,0,9.806,6.684,14.015,5.196
			C186.191,182.684,189.826,174.339,187.54,171.157z"/>
		<path style="fill:#FFFFFF;" d="M203.482,167.648l-14.886-0.079c-2.272,0.92-3.599,6.851,11.507,11.876
			C210.568,173.492,204.996,168.204,203.482,167.648z"/>
		<path style="fill:#7F3E3B;" d="M190.16,150.815c0.914,4.795,1.805,13.575-1.563,16.754c0,0,1.3,4.867,11.507,11.876
			c7.15-7.171,3.379-11.797,3.379-11.797c-5.334-1.304-5.176-5.266-4.226-8.982L190.16,150.815z"/>
		<path style="fill:#263238;" d="M221.033,198.376c-0.054,0-0.108-0.002-0.162-0.006c-1.101-0.088-1.922-1.053-1.834-2.154
			c0.358-4.458-2.984-7.829-6.854-11.732c-4.436-4.474-9.464-9.545-9.666-17.433c-0.028-1.104,0.844-2.023,1.948-2.051
			c1.103-0.034,2.022,0.844,2.051,1.948c0.162,6.301,4.405,10.581,8.508,14.719c4.182,4.218,8.506,8.579,8.001,14.869
			C222.94,197.583,222.065,198.376,221.033,198.376z"/>
		<path style="fill:#263238;" d="M191.769,208.501c-0.158,0-0.319-0.019-0.48-0.059c-1.072-0.264-1.728-1.348-1.463-2.42
			c1.932-7.837-0.6-13.979-3.28-20.482c-2.399-5.82-4.879-11.838-3.673-18.878c0.187-1.088,1.22-1.818,2.309-1.633
			c1.089,0.187,1.82,1.22,1.634,2.309c-1.011,5.904,1.146,11.137,3.429,16.677c2.677,6.495,5.711,13.855,3.466,22.963
			C193.485,207.89,192.668,208.501,191.769,208.501z"/>
		<path style="opacity:0.2;" d="M197.384,157.042l-4.051,0.471c0.075,0.556,0.492,2.085,1.138,3.043
			c0.785,1.189,2.553,1.715,4.285,1.762c-0.041-1.171,0.194-2.426,0.503-3.654L197.384,157.042z"/>
		<path style="fill:#7F3E3B;" d="M181.312,146.004c2.925,7.458,4.004,10.677,9.109,13.341c7.678,4.007,16.199-1.217,15.561-9.398
			c-0.574-7.364-5.262-18.323-13.688-18.945C183.992,130.388,178.387,138.546,181.312,146.004z"/>
		<path style="fill:#263238;" d="M189.336,129.917c5.696,3.501,0.824,24.096-8.809,23.031
			C170.895,151.883,180.93,124.75,189.336,129.917z"/>
		<path style="fill:#263238;" d="M189.134,129.985c-4.293,2.853-1.367,7.812,13.094,4.878
			C202.228,134.863,196.249,125.258,189.134,129.985z"/>
		<path style="fill:#7F3E3B;" d="M182.348,153.251c0.663,1.523,1.968,2.597,3.246,3.075c1.923,0.72,3.059-0.957,2.672-2.864
			c-0.349-1.716-1.769-4.158-3.77-4.06C182.526,149.499,181.59,151.51,182.348,153.251z"/>
		<g>
			<path style="fill:#263238;" d="M212.984,217.215c0,0,17.5,57.127,18.906,81.708c1.462,25.568-36.508,55.91-36.508,55.91
				l-9.453-10.373c0,0,30.851-26.198,26.622-45.177c-5.831-26.165-23.514-80.392-23.514-80.392L212.984,217.215z"/>
			<path style="opacity:0.2;" d="M202.093,235.908c-1.607-5.018-5.164-1.634-6.404,3.66c2.469,7.965,5.326,17.362,8.055,26.733
				C204.787,257.983,205.22,245.71,202.093,235.908z"/>
		</g>
		<polygon style="fill:#407BFF;" points="183.392,343.959 195.381,356.333 200.505,353.498 187.832,339.715 		"/>
		<g>
			<path style="fill:#263238;" d="M204.348,217.819c0,0-4.98,55.994-10.004,87.191c-4.058,25.198-31.565,66.365-31.565,66.365
				l-10.079-4.692c0,0,18.488-44.077,21.374-61.206c9.236-54.826-3.246-70.644,6.208-85.972L204.348,217.819z"/>
		</g>
		<polygon style="fill:#407BFF;" points="152.002,366.785 163.367,372.374 167.101,367.736 153.799,361.471 		"/>
		<path style="fill:#FFFFFF;" d="M179.658,217.619l-1.27,3.03c-0.098,0.235,0.187,0.448,0.565,0.421l34.296-2.401
			c0.295-0.021,0.529-0.182,0.535-0.369l0.09-2.948c0.006-0.204-0.261-0.358-0.584-0.335l-33.116,2.318
			C179.93,217.353,179.721,217.468,179.658,217.619z"/>
		<path style="fill:#263238;" d="M184.365,221.011l-0.887,0.062c-0.177,0.012-0.318-0.069-0.313-0.182l0.15-3.832
			c0.004-0.112,0.152-0.214,0.329-0.226l0.887-0.062c0.177-0.012,0.318,0.069,0.313,0.181l-0.15,3.832
			C184.689,220.896,184.541,220.998,184.365,221.011z"/>
		<path style="fill:#263238;" d="M210.778,219.162l-0.887,0.062c-0.177,0.012-0.318-0.069-0.313-0.181l0.15-3.832
			c0.004-0.112,0.152-0.214,0.329-0.226l0.887-0.062c0.177-0.012,0.318,0.069,0.313,0.181l-0.15,3.832
			C211.103,219.048,210.955,219.15,210.778,219.162z"/>
		<path style="fill:#263238;" d="M197.572,220.086l-0.887,0.062c-0.177,0.012-0.318-0.069-0.313-0.181l0.15-3.832
			c0.004-0.112,0.152-0.214,0.329-0.226l0.887-0.062c0.177-0.012,0.318,0.069,0.313,0.182l-0.15,3.832
			C197.896,219.972,197.748,220.074,197.572,220.086z"/>
		<g>
			<path style="fill:#263238;" d="M193.36,143.199c-0.484,0.157-0.683,0.885-0.443,1.626l1.755-0.567
				C194.431,143.516,193.844,143.042,193.36,143.199z"/>
			<path style="fill:#263238;" d="M200.948,140.783c-0.485,0.157-0.684,0.885-0.444,1.626l1.755-0.567
				C202.019,141.101,201.432,140.627,200.948,140.783z"/>
		</g>
		<path style="fill:#263238;" d="M200.747,140.894l1.615-1.089C202.362,139.805,201.897,141.491,200.747,140.894z"/>
		<path style="fill:#630F0F;" d="M199.036,143.802c0,0,1.913,2.327,3.486,3.241c-0.571,1.028-2.075,1.128-2.075,1.128
			L199.036,143.802z"/>
		<path style="fill:#263238;" d="M199.121,151.278c0.056-0.049,0.081-0.128,0.057-0.204c-0.033-0.1-0.14-0.156-0.241-0.123
			c-2.711,0.876-4.602-0.611-4.621-0.626c-0.082-0.066-0.2-0.056-0.268,0.028c-0.066,0.082-0.054,0.202,0.028,0.269
			c0.083,0.067,2.064,1.635,4.979,0.693C199.08,151.307,199.103,151.294,199.121,151.278z"/>
		<path style="fill:#263238;" d="M190.834,142.75c0.049-0.042,0.088-0.097,0.11-0.163c0.561-1.61,1.924-1.964,1.938-1.968
			c0.206-0.051,0.33-0.259,0.279-0.463c-0.051-0.205-0.258-0.33-0.463-0.279c-0.072,0.018-1.781,0.461-2.477,2.458
			c-0.07,0.2,0.036,0.417,0.235,0.487C190.591,142.869,190.734,142.837,190.834,142.75z"/>
		<path style="fill:#263238;" d="M202.812,137.812c0.018-0.016,0.035-0.033,0.05-0.052c0.132-0.165,0.104-0.406-0.062-0.537
			c-1.657-1.315-3.338-0.775-3.409-0.751c-0.2,0.067-0.308,0.283-0.242,0.484c0.067,0.2,0.283,0.308,0.483,0.242
			c0.063-0.02,1.374-0.422,2.692,0.625C202.471,137.938,202.676,137.93,202.812,137.812z"/>
		<path style="fill:#407BFF;" d="M162.752,131.73c-0.235,0-0.473-0.063-0.688-0.195l-30.426-18.737
			c-0.618-0.38-0.81-1.19-0.43-1.808c0.38-0.618,1.19-0.81,1.807-0.43l30.427,18.737c0.618,0.38,0.81,1.19,0.43,1.808
			C163.623,131.508,163.193,131.73,162.752,131.73z"/>
		<g>
			<path style="fill:#407BFF;" d="M138.533,114.874c1.704-0.078,3.465-0.159,3.698-1.691s-1.426-2.132-3.029-2.712
				c-0.126-0.046-0.276-0.1-0.43-0.157c-0.032-0.151-0.068-0.3-0.111-0.447c0.124-0.139,0.245-0.273,0.347-0.385
				c1.125-1.237,2.287-2.516,1.385-3.741c-0.903-1.225-2.469-0.495-3.984,0.212c-0.137,0.064-0.301,0.14-0.471,0.217
				c-0.128-0.084-0.259-0.163-0.394-0.238c-0.009-0.164-0.017-0.323-0.023-0.457c-0.078-1.704-0.159-3.465-1.691-3.698
				c-1.533-0.233-2.132,1.426-2.712,3.03c-0.046,0.126-0.1,0.275-0.157,0.43c-0.151,0.032-0.3,0.068-0.447,0.11
				c-0.139-0.124-0.273-0.245-0.385-0.347c-1.237-1.124-2.516-2.287-3.741-1.385c-1.225,0.902-0.494,2.469,0.213,3.984
				c0.064,0.137,0.14,0.301,0.217,0.471c-0.084,0.128-0.163,0.26-0.238,0.394c-0.164,0.009-0.323,0.017-0.457,0.023
				c-1.703,0.078-3.465,0.159-3.698,1.691c-0.233,1.533,1.426,2.133,3.03,2.712c0.126,0.046,0.276,0.1,0.43,0.157
				c0.032,0.151,0.068,0.3,0.11,0.447c-0.124,0.139-0.245,0.274-0.347,0.386c-1.124,1.237-2.287,2.516-1.385,3.741
				c0.902,1.225,2.469,0.494,3.984-0.212c0.137-0.064,0.301-0.14,0.471-0.217c0.128,0.084,0.26,0.163,0.395,0.238
				c0.009,0.164,0.016,0.322,0.022,0.457c0.078,1.704,0.159,3.465,1.691,3.698c1.533,0.233,2.133-1.426,2.712-3.03
				c0.046-0.126,0.1-0.276,0.158-0.43c0.151-0.032,0.3-0.068,0.447-0.11c0.139,0.124,0.273,0.245,0.385,0.347
				c1.237,1.124,2.517,2.286,3.741,1.385c1.226-0.902,0.495-2.468-0.212-3.983c-0.064-0.137-0.14-0.302-0.217-0.472
				c0.084-0.128,0.163-0.26,0.238-0.395C138.24,114.888,138.398,114.88,138.533,114.874z"/>
			<path style="opacity:0.7;fill:#FFFFFF;" d="M138.533,114.874c1.704-0.078,3.465-0.159,3.698-1.691s-1.426-2.132-3.029-2.712
				c-0.126-0.046-0.276-0.1-0.43-0.157c-0.032-0.151-0.068-0.3-0.111-0.447c0.124-0.139,0.245-0.273,0.347-0.385
				c1.125-1.237,2.287-2.516,1.385-3.741c-0.903-1.225-2.469-0.495-3.984,0.212c-0.137,0.064-0.301,0.14-0.471,0.217
				c-0.128-0.084-0.259-0.163-0.394-0.238c-0.009-0.164-0.017-0.323-0.023-0.457c-0.078-1.704-0.159-3.465-1.691-3.698
				c-1.533-0.233-2.132,1.426-2.712,3.03c-0.046,0.126-0.1,0.275-0.157,0.43c-0.151,0.032-0.3,0.068-0.447,0.11
				c-0.139-0.124-0.273-0.245-0.385-0.347c-1.237-1.124-2.516-2.287-3.741-1.385c-1.225,0.902-0.494,2.469,0.213,3.984
				c0.064,0.137,0.14,0.301,0.217,0.471c-0.084,0.128-0.163,0.26-0.238,0.394c-0.164,0.009-0.323,0.017-0.457,0.023
				c-1.703,0.078-3.465,0.159-3.698,1.691c-0.233,1.533,1.426,2.133,3.03,2.712c0.126,0.046,0.276,0.1,0.43,0.157
				c0.032,0.151,0.068,0.3,0.11,0.447c-0.124,0.139-0.245,0.274-0.347,0.386c-1.124,1.237-2.287,2.516-1.385,3.741
				c0.902,1.225,2.469,0.494,3.984-0.212c0.137-0.064,0.301-0.14,0.471-0.217c0.128,0.084,0.26,0.163,0.395,0.238
				c0.009,0.164,0.016,0.322,0.022,0.457c0.078,1.704,0.159,3.465,1.691,3.698c1.533,0.233,2.133-1.426,2.712-3.03
				c0.046-0.126,0.1-0.276,0.158-0.43c0.151-0.032,0.3-0.068,0.447-0.11c0.139,0.124,0.273,0.245,0.385,0.347
				c1.237,1.124,2.517,2.286,3.741,1.385c1.226-0.902,0.495-2.468-0.212-3.983c-0.064-0.137-0.14-0.302-0.217-0.472
				c0.084-0.128,0.163-0.26,0.238-0.395C138.24,114.888,138.398,114.88,138.533,114.874z"/>
		</g>
		<path style="fill:#7F3E3B;" d="M153.672,132.05l-1.252-8.008l8.158,3.961c0,0-0.152,1.457-2.036,3.529
			c-0.849,0.934-2.156,1.308-3.368,0.955L153.672,132.05z"/>
		<polygon style="fill:#7F3E3B;" points="157.003,120.125 161.184,123.798 160.578,128.003 152.42,124.042 		"/>
		<path style="fill:#407BFF;" d="M158.323,383.609c0.081-0.055,0.16-0.122,0.237-0.202c0.227-0.234,0.228-0.472,0.19-0.63
			c-0.243-1.002-2.998-1.962-3.311-2.068c-0.072-0.024-0.152-0.005-0.203,0.053c-0.051,0.057-0.064,0.138-0.032,0.208
			c0.448,0.976,1.351,2.64,2.361,2.813C157.833,383.828,158.087,383.77,158.323,383.609z M155.752,381.228
			c1.09,0.416,2.498,1.111,2.626,1.639c0.016,0.066,0.02,0.157-0.093,0.274c-0.21,0.217-0.424,0.303-0.656,0.264
			C157.084,383.312,156.395,382.509,155.752,381.228z"/>
		<path style="fill:#407BFF;" d="M158.828,380.942c0.068-0.046,0.127-0.098,0.175-0.154c0.116-0.134,0.273-0.422,0.025-0.835
			c-0.158-0.262-0.393-0.424-0.699-0.481c-1.152-0.214-2.992,1.207-3.07,1.267c-0.054,0.042-0.081,0.109-0.072,0.176
			c0.009,0.068,0.053,0.125,0.116,0.151C156.057,381.378,158.044,381.476,158.828,380.942z M155.848,380.786
			c0.646-0.44,1.743-1.062,2.412-0.938c0.197,0.036,0.341,0.135,0.441,0.302c0.127,0.211,0.074,0.318,0.014,0.389
			c-0.368,0.427-1.963,0.511-2.919,0.283C155.813,380.81,155.83,380.798,155.848,380.786z"/>
		<path style="fill:#407BFF;" d="M184.915,364.253c0.284,0.683,0.655,1.276,1.131,1.554c0.325,0.19,0.674,0.222,1.036,0.096
			c0.269-0.095,0.36-0.282,0.388-0.422c0.21-1.027-2.411-3.469-2.938-3.949c-0.06-0.055-0.149-0.065-0.221-0.026
			c-0.072,0.039-0.11,0.12-0.096,0.201C184.34,362.408,184.561,363.401,184.915,364.253z M187.026,365.027
			c0.063,0.152,0.089,0.28,0.07,0.378c-0.009,0.047-0.034,0.1-0.14,0.137c-0.255,0.09-0.489,0.068-0.716-0.064
			c-0.608-0.355-1.168-1.556-1.534-3.26C185.63,363.108,186.731,364.317,187.026,365.027z"/>
		<path style="fill:#407BFF;" d="M184.228,361.747c0.009,0.022,0.023,0.044,0.041,0.061c0.823,0.828,3.274,2.169,4.061,1.709
			c0.173-0.101,0.35-0.321,0.215-0.798c-0.517-1.836-4.024-1.26-4.173-1.234c-0.07,0.012-0.128,0.062-0.15,0.13
			C184.208,361.659,184.21,361.706,184.228,361.747z M188.134,362.701c0.016,0.039,0.031,0.08,0.042,0.122
			c0.055,0.194,0.041,0.317-0.04,0.364c-0.457,0.267-2.31-0.593-3.291-1.378C185.713,361.721,187.694,361.643,188.134,362.701z"/>
		<path style="fill:#263238;" d="M193.159,143.309l1.615-1.089C194.774,142.221,194.309,143.906,193.159,143.309z"/>
	</g>
</g>
<g id="Character_2">
	<g>
		<polygon style="fill:#FFC3BD;" points="323.89,405.27 316.141,405.281 314.052,387.337 321.802,387.326 		"/>
		<polygon style="fill:#FFC3BD;" points="390.596,371.968 384.733,377.036 371.438,364.806 377.301,359.739 		"/>
		<path style="fill:#263238;" d="M383.586,376.841l7.148-6.178c0.24-0.207,0.584-0.214,0.829-0.017l5.449,4.395
			c0.565,0.456,0.561,1.353,0,1.822c-2.332,1.947-4.122,3.258-7.018,5.761c-1.782,1.54-7.004,6.377-9.465,8.504
			c-2.407,2.08-4.786-0.115-3.96-1.214c3.704-4.928,5.986-9.281,6.362-11.877C382.999,377.569,383.235,377.144,383.586,376.841z"/>
		<path style="fill:#263238;" d="M316.194,404.384l8.463-0.012c0.317,0,0.591,0.219,0.661,0.528l1.541,6.886
			c0.16,0.714-0.382,1.391-1.113,1.38c-3.053-0.047-7.465-0.22-11.302-0.214c-4.487,0.007-7.113,0.122-12.374,0.129
			c-3.181,0.005-4.069-3.21-2.738-3.504c6.061-1.335,9.762-1.349,14.996-4.587C314.897,404.638,315.525,404.384,316.194,404.384z"/>
		<path style="fill:#FFC3BD;" d="M291.017,182.507c-1.561-0.593-2.898-1.148-4.297-1.79c-1.385-0.621-2.752-1.271-4.113-1.939
			c-2.707-1.362-5.372-2.833-7.974-4.454c-2.616-1.591-5.147-3.398-7.612-5.355c-0.612-0.504-1.23-0.985-1.833-1.509l-1.776-1.628
			c-0.589-0.544-1.149-1.164-1.722-1.744c-0.294-0.314-0.546-0.545-0.872-0.929c-0.317-0.375-0.646-0.751-0.941-1.132
			c-1.18-1.526-2.038-3.095-2.764-4.654c-0.725-1.559-1.3-3.112-1.775-4.653c-0.948-3.089-1.542-6.143-1.953-9.176
			c-0.813-6.084-0.906-12.002-0.442-18.063l5.818-0.055c0.394,2.714,0.814,5.562,1.371,8.3c0.528,2.754,1.122,5.48,1.839,8.123
			c0.709,2.642,1.533,5.217,2.541,7.576c0.967,2.365,2.223,4.505,3.523,5.975l0.491,0.498c0.15,0.161,0.451,0.401,0.668,0.598
			c0.483,0.41,0.923,0.84,1.433,1.236c1.012,0.795,2.03,1.588,3.119,2.343c2.167,1.508,4.443,2.938,6.821,4.273
			c2.377,1.328,4.808,2.609,7.286,3.814c1.235,0.61,2.48,1.206,3.734,1.771c1.234,0.556,2.557,1.142,3.683,1.624L291.017,182.507z"
			/>
		<path style="fill:#263238;" d="M292.236,189.108c-6.366-3.791-12.457-9.318-12.457-9.318l3.093-15.834
			c0,0,9.546,2.761,17.493,3.822C310.106,169.078,299.193,193.251,292.236,189.108z"/>
		<path style="fill:#FFC3BD;" d="M258.894,126.872l0.542-9.872l-8.195,2.629c0,0-1.916,7.066,3.411,8.93L258.894,126.872z"/>
		<polygon style="fill:#FFC3BD;" points="258.446,111.686 251.683,114.506 251.242,119.629 259.437,117 		"/>
		<polygon style="opacity:0.2;" points="314.055,387.342 315.129,396.591 322.882,396.58 321.807,387.331 		"/>
		<polygon style="opacity:0.2;" points="377.306,359.741 371.44,364.81 378.296,371.112 384.162,366.042 		"/>
		<path style="fill:#263238;" d="M330.156,167.504c0.073-2.308-1.744-4.254-4.053-4.296c-22.12-0.408-36.509,5.794-37.5,6.19
			c-0.757,0.301-1.294,0.969-1.428,1.773c-0.922,5.543-3.53,28.762,9.256,65.096c12.355-1.76,35.02-4.994,41.036-5.863
			C336.875,224.352,329.242,196.586,330.156,167.504z"/>
		<path style="fill:#FFFFFF;" d="M297.037,166.61c-2.43,3.25-3.53,10.74,4.52,16.22c9.9-7.39,14.98-15.34,16.51-19.48
			C309.276,163.82,302.106,165.25,297.037,166.61z"/>
		<path style="fill:#407BFF;" d="M295.163,169.651c-1.105,0-2-0.895-2-2c0-1.651,1.432-3.075,2.633-3.979
			c4.062-3.056,11.969-5.292,21.98-2.406c1.061,0.306,1.674,1.415,1.367,2.476c-0.306,1.061-1.415,1.674-2.476,1.368
			c-11.595-3.345-18.744,1.406-19.519,2.777C297.032,168.88,296.187,169.651,295.163,169.651z"/>
		<path style="fill:#FFC3BD;" d="M311.777,144.336c-0.299,5.77,0.071,16.21,4.532,19.394c-2.618,3.468-6.105,7.54-12.736,8.726
			c-3.979,0.711-5.369-0.766-5.539-2.638c-0.166-1.822,0.858-3.568,2.44-4.486c4.311-2.502,3.449-6.525,1.901-10.325
			L311.777,144.336z"/>
		<path style="fill:#407BFF;" d="M294.554,215.528c-0.221,0-0.446-0.037-0.666-0.115c-1.042-0.368-1.588-1.51-1.22-2.552
			c0.696-1.971,0.354-2.926-0.163-4.372l-0.201-0.571c-0.175-0.51-0.767-1.163-1.34-1.795c-0.905-0.998-1.931-2.129-2.27-3.638
			c-0.367-1.645,0.146-3.18,0.559-4.414c0.222-0.663,0.474-1.416,0.43-1.806c-0.058-0.522-0.493-1.275-0.914-2.004
			c-0.667-1.154-1.423-2.463-1.413-3.982c0.012-1.7,0.88-3.052,1.578-4.138c0.336-0.522,0.753-1.173,0.794-1.502
			c0.057-0.465-0.083-0.919-0.317-1.622c-0.319-0.959-0.716-2.152-0.345-3.599c0.448-1.713,1.565-2.689,2.38-3.401
			c0.366-0.32,0.745-0.651,0.835-0.867c0.165-0.402,0.111-0.804,0.001-1.478c-0.15-0.915-0.355-2.169,0.449-3.438
			c0.701-1.094,0.628-1.38,0.57-1.61c-0.063-0.247-0.158-0.62-0.134-1.077c0.056-1.103,0.995-1.939,2.1-1.895
			c1.045,0.054,1.861,0.899,1.896,1.926l0.014,0.059c0.288,1.132,0.361,2.484-1.035,4.688c-0.004,0.143,0.048,0.463,0.087,0.703
			c0.142,0.865,0.355,2.172-0.25,3.647c-0.45,1.088-1.255,1.79-1.901,2.355c-0.642,0.561-1.011,0.902-1.14,1.392
			c-0.073,0.284,0.048,0.673,0.268,1.335c0.294,0.885,0.66,1.986,0.492,3.369c-0.151,1.237-0.814,2.268-1.398,3.178
			c-0.462,0.72-0.94,1.464-0.944,2.003c-0.003,0.432,0.465,1.241,0.877,1.955c0.598,1.035,1.275,2.208,1.426,3.561
			c0.142,1.265-0.258,2.462-0.611,3.519c-0.282,0.843-0.573,1.714-0.449,2.271c0.107,0.477,0.757,1.193,1.33,1.825
			c0.805,0.888,1.717,1.894,2.161,3.185l0.184,0.521c0.596,1.665,1.337,3.739,0.168,7.05
			C296.15,215.015,295.378,215.528,294.554,215.528z M297.16,167.751c0,0.001,0,0.001,0,0.001
			C297.16,167.752,297.16,167.752,297.16,167.751z"/>
		<path style="fill:#FFC3BD;" d="M329.787,167.172c1.09,0.99,1.988,1.841,2.923,2.799c0.921,0.937,1.822,1.885,2.708,2.851
			c1.781,1.922,3.461,3.94,5.082,6.03c3.215,4.199,6.167,8.711,8.405,13.915c0.547,1.309,1.048,2.656,1.46,4.076
			c0.217,0.699,0.394,1.431,0.564,2.164l0.064,0.274l0.087,0.467c0.06,0.317,0.09,0.646,0.118,0.973
			c0.045,0.655,0.03,1.32-0.055,1.959c-0.157,1.286-0.574,2.451-1.078,3.417c-0.504,0.974-1.088,1.788-1.686,2.482
			c-1.199,1.391-2.458,2.383-3.713,3.225c-2.502,1.673-5.013,2.777-7.538,3.695c-1.26,0.459-2.529,0.85-3.81,1.18
			c-1.291,0.342-2.522,0.641-3.907,0.876l-1.802-5.533c0.972-0.557,2.065-1.148,3.075-1.75c1.02-0.615,2.025-1.235,3.003-1.862
			c1.942-1.26,3.794-2.606,5.228-3.981c0.703-0.688,1.294-1.386,1.633-1.954c0.352-0.575,0.319-0.954,0.218-0.832
			c-0.016,0.02-0.039,0.06-0.05,0.097c-0.012,0.018-0.008,0.037-0.02,0.051c-0.005,0.003-0.001,0.025-0.007,0.011l-0.058-0.176
			c-0.151-0.469-0.298-0.938-0.49-1.414c-0.351-0.948-0.798-1.905-1.276-2.861c-0.963-1.919-2.113-3.83-3.414-5.694
			c-1.275-1.878-2.676-3.718-4.155-5.519c-1.463-1.813-3.028-3.569-4.606-5.316c-0.794-0.869-1.604-1.726-2.425-2.565
			c-0.81-0.815-1.678-1.715-2.41-2.418L329.787,167.172z"/>
		<path style="fill:#263238;" d="M327.211,163.382c4.515,0.664,11.611,11.971,11.611,11.971l-11.512,15.425
			c0,0-6.136-5.845-7.932-11C315.947,169.927,318.331,162.076,327.211,163.382z"/>
		<path style="fill:#407BFF;" d="M321.185,202.224c-0.681,0-1.344-0.348-1.719-0.974c-0.863-1.444-0.858-3.063-0.853-4.363
			c0.002-0.7,0.005-1.493-0.159-1.85c-0.219-0.478-0.869-1.057-1.497-1.616c-0.996-0.887-2.124-1.892-2.592-3.337
			c-0.522-1.618-0.122-3.174,0.199-4.425c0.155-0.601,0.347-1.35,0.282-1.675c-0.102-0.506-0.597-1.21-1.077-1.89
			c-0.751-1.064-1.602-2.271-1.702-3.736c-0.112-1.765,0.711-3.167,1.372-4.294c0.252-0.429,0.632-1.077,0.65-1.314
			c0.041-0.578-0.256-1.402-0.543-2.199c-0.439-1.217-0.892-2.477-0.56-3.802c0.764-2.984,2.049-4.226,2.667-4.823l0.127-0.124
			c0.766-0.796,2.032-0.821,2.828-0.054c0.796,0.766,0.82,2.032,0.054,2.828c-0.066,0.069-0.143,0.144-0.229,0.227
			c-0.434,0.419-1.089,1.052-1.569,2.929c-0.008,0.204,0.265,0.963,0.446,1.465c0.388,1.076,0.87,2.415,0.77,3.841
			c-0.086,1.171-0.672,2.17-1.19,3.052c-0.425,0.724-0.865,1.473-0.831,2.006c0.023,0.339,0.576,1.123,0.979,1.695
			c0.685,0.972,1.462,2.074,1.73,3.409c0.245,1.222-0.061,2.409-0.33,3.457c-0.213,0.828-0.433,1.685-0.267,2.199
			c0.133,0.411,0.861,1.059,1.446,1.58c0.892,0.795,1.904,1.696,2.471,2.933c0.532,1.157,0.528,2.419,0.524,3.533
			c-0.003,0.889-0.006,1.807,0.287,2.297c0.567,0.948,0.257,2.176-0.691,2.743C321.887,202.132,321.534,202.224,321.185,202.224z"/>
		<path style="opacity:0.2;" d="M307.944,148.69l-5.566,6.312c0.409,0.995,0.762,2.012,0.98,3.02c2.342-0.687,5.251-3.78,5.148-6.32
			C308.454,150.435,308.23,149.242,307.944,148.69z"/>
		<path style="fill:#263238;" d="M296.252,127.932c-2.467,4.303-0.888,10.414-0.888,10.414c2.287,1.507,4.484,0.207,4.484,0.207
			l-0.701-11.406L296.252,127.932z"/>
		<path style="fill:#FFC3BD;" d="M315.725,138.855c-1.893,7.455-2.622,11.914-7.165,15.063c-6.834,4.737-15.489-0.482-15.862-8.352
			c-0.335-7.084,2.816-18.085,10.768-19.687C311.301,124.301,317.618,131.4,315.725,138.855z"/>
		<g>
			<path style="fill:#407BFF;" d="M293.94,147.534c-0.09,0-0.182-0.009-0.273-0.029l-16.946-3.59
				c-0.928-0.196-1.724-0.743-2.241-1.538c-0.517-0.795-0.694-1.744-0.497-2.672c0.197-0.928,0.743-1.724,1.538-2.241
				c0.795-0.518,1.744-0.693,2.672-0.497c0.71,0.15,1.163,0.848,1.013,1.558c-0.15,0.71-0.847,1.165-1.557,1.013
				c-0.242-0.052-0.488-0.006-0.695,0.129c-0.207,0.135-0.349,0.342-0.4,0.583c-0.051,0.242-0.005,0.489,0.129,0.696
				c0.135,0.207,0.342,0.349,0.583,0.4l16.947,3.59c0.71,0.15,1.163,0.848,1.013,1.558
				C295.093,147.11,294.547,147.534,293.94,147.534z"/>
			<path style="fill:#FFFFFF;" d="M293.874,147.827l-2.051-0.435l0.645-3.046l2.052,0.435c0.838,0.177,1.378,1.008,1.2,1.846l0,0
				C295.543,147.464,294.712,148.005,293.874,147.827z"/>
		</g>
		<path style="fill:#263238;" d="M311.086,134.746c0-2.834-2.137-4.902-9.278-4.357c-5.826,0.444-8.665-2.278-7-6.071
			c4.722,2.46,3.944-0.762,12.944-1.151s11.611,3.055,12.556,8.278c5.514,8.167-4,11.556-4,11.556l-3.722,3.248
			c0,0-2.461,0.68-4.274-1.373C308.312,144.875,307.579,138.254,311.086,134.746z"/>
		<g>
			<path style="fill:#407BFF;" d="M301.532,121.756l-0.234,0.125c-0.937,0.501-0.979,1.829-0.075,2.388l20.877,12.911
				c0.841,0.52,1.94,0.012,2.088-0.966l0,0c0.2-1.317-0.405-2.626-1.537-3.328l-17.798-11.026
				C303.844,121.237,302.578,121.197,301.532,121.756z"/>
			<path style="fill:#407BFF;" d="M305.285,123.137l5.348-7.812c0.317-0.463,0.94-0.6,1.422-0.311l14.738,8.823
				c0.542,0.325,0.683,1.048,0.301,1.552l-6.396,8.445L305.285,123.137z"/>
			<g>
				<polygon style="fill:#407BFF;" points="305.285,123.137 307.42,119.333 323.878,130.208 320.698,133.833 				"/>
				<polygon style="opacity:0.6;fill:#FFFFFF;" points="305.285,123.137 307.42,119.333 323.878,130.208 320.698,133.833 				"/>
			</g>
		</g>
		<path style="fill:#FFC3BD;" d="M316.668,147.997c-1.589,1.092-3.496,1.368-5.001,1.08c-2.264-0.433-2.27-2.739-0.698-4.368
			c1.415-1.466,4.298-3.007,6.117-1.731C318.878,144.236,318.485,146.749,316.668,147.997z"/>
		<path style="fill:#407BFF;" d="M312.223,394.806l13.122-0.025c0,0-2.064-46.659-4.894-70.642
			c-0.86-7.295,0.074-17.302,0.163-28.47c0.119-14.072,0.766-29.399,1.408-41.431c0.681-12.673,1.246-21.801,1.246-21.801
			l-26.836,3.829c0,0-2.666,66.437,1.512,89.718C302.284,350.19,312.223,394.806,312.223,394.806z"/>
		<path style="opacity:0.2;" d="M320.614,295.669c0.119-14.072,0.766-29.399,1.408-41.431l-4.033-5.347
			C313.078,258.14,316.51,282.769,320.614,295.669z"/>
		<path style="fill:#407BFF;" d="M309.217,234.441c0,0,16.676,65.832,24.591,87.114c8.668,23.306,40.605,50.544,40.605,50.544
			l8.062-8.877c0,0-16.889-26.333-29.333-51.667c-5.957-32.889-15.675-81.153-15.675-81.153L309.217,234.441z"/>
		<polygon style="fill:#263238;" points="373.329,373.442 385.975,362.513 382.71,358.736 368.361,370.707 		"/>
		<polygon style="fill:#263238;" points="310.575,395.113 326.213,395.091 326.205,390.038 308.725,389.798 		"/>
		<g>
			<path style="fill:#263238;" d="M304.195,137.395c-0.492-0.157-1.085,0.327-1.324,1.079l1.781,0.566
				C304.892,138.288,304.688,137.551,304.195,137.395z"/>
			<path style="fill:#263238;" d="M296.403,135.921c-0.515-0.034-0.975,0.578-1.026,1.366l1.865,0.122
				C297.293,136.621,296.918,135.955,296.403,135.921z"/>
		</g>
		<path style="fill:#ED847E;" d="M299.092,138.203c0,0-2.068,3.278-3.929,4.696c0.894,1.22,2.829,1.107,2.829,1.107L299.092,138.203
			z"/>
		<path style="fill:#263238;" d="M306.743,136.585c0.06,0.013,0.123,0.012,0.186-0.007c0.194-0.059,0.303-0.264,0.245-0.458
			c-0.59-1.943-2.212-2.435-2.281-2.455c-0.195-0.057-0.398,0.055-0.455,0.25c-0.056,0.194,0.055,0.397,0.248,0.454l0,0
			c0.053,0.016,1.314,0.413,1.785,1.963C306.511,136.465,306.618,136.557,306.743,136.585z"/>
		<path style="fill:#263238;" d="M294.094,134.874c0.118,0.018,0.241-0.022,0.327-0.117c1.087-1.202,2.396-1.023,2.452-1.015
			c0.2,0.03,0.387-0.108,0.418-0.307c0.031-0.2-0.105-0.386-0.304-0.418c-0.073-0.01-1.748-0.258-3.11,1.248
			c-0.136,0.15-0.124,0.383,0.026,0.519C293.958,134.834,294.025,134.864,294.094,134.874z"/>
		<g>
			<path style="fill:#407BFF;" d="M382.49,379.578c0.542-0.469,1.035-1.091,1.361-1.544c0.044-0.06,0.048-0.142,0.012-0.207
				c-0.036-0.065-0.107-0.1-0.179-0.09c-0.324,0.046-3.172,0.478-3.546,1.383c-0.058,0.141-0.09,0.361,0.085,0.612
				c0.236,0.339,0.536,0.511,0.892,0.512C381.564,380.245,382.044,379.963,382.49,379.578z M383.288,378.179
				c-0.831,1.067-1.627,1.691-2.169,1.69c-0.238-0.001-0.435-0.118-0.603-0.359c-0.082-0.118-0.068-0.193-0.046-0.245
				C380.663,378.796,382.153,378.383,383.288,378.179z"/>
			<path style="fill:#407BFF;" d="M383.822,378.066c0.026-0.023,0.047-0.053,0.057-0.089c0.02-0.066,0.004-0.137-0.042-0.186
				c-0.065-0.07-1.598-1.7-2.737-1.688c-0.297,0.003-0.545,0.113-0.739,0.326c0,0,0,0,0,0c-0.298,0.329-0.217,0.617-0.142,0.759
				c0.414,0.784,2.645,1.1,3.522,0.917C383.772,378.099,383.799,378.085,383.822,378.066z M380.681,376.628
				c0.114-0.099,0.252-0.148,0.419-0.15c0.731-0.008,1.73,0.851,2.205,1.304c-0.98,0.047-2.526-0.312-2.771-0.775
				c-0.022-0.042-0.075-0.142,0.087-0.32l0,0C380.641,376.665,380.661,376.646,380.681,376.628z"/>
			<path style="fill:#407BFF;" d="M315.433,405.456c0.064-0.022,0.112-0.079,0.121-0.148c0.011-0.077-0.029-0.153-0.098-0.189
				c-0.352-0.181-3.47-1.756-4.41-1.23c-0.181,0.102-0.286,0.271-0.302,0.489v0c-0.027,0.366,0.089,0.666,0.345,0.892
				c0.851,0.751,3.072,0.443,4.32,0.192C315.417,405.461,315.425,405.458,315.433,405.456z M311.292,404.18
				c0.584-0.203,2.274,0.438,3.504,1.023c-1.711,0.287-2.986,0.215-3.464-0.207c-0.168-0.148-0.241-0.341-0.222-0.59
				c0.007-0.096,0.042-0.155,0.116-0.196C311.245,404.198,311.268,404.188,311.292,404.18z"/>
			<path style="fill:#407BFF;" d="M315.433,405.456c0.016-0.006,0.032-0.014,0.047-0.024c0.053-0.038,0.082-0.102,0.076-0.167
				c-0.009-0.089-0.221-2.175-1.208-2.983c-0.301-0.246-0.644-0.352-1.018-0.313l0,0c-0.505,0.052-0.65,0.308-0.683,0.514
				c-0.141,0.877,1.715,2.55,2.651,2.968C315.341,405.469,315.389,405.471,315.433,405.456z M313.179,402.371
				c0.048-0.017,0.109-0.03,0.188-0.038l0,0c0.278-0.029,0.522,0.047,0.748,0.232c0.649,0.531,0.927,1.779,1.027,2.388
				c-0.956-0.572-2.217-1.887-2.133-2.413C313.014,402.507,313.027,402.424,313.179,402.371z M313.348,402.15l-0.004,0.001
				L313.348,402.15z"/>
		</g>
		<g>
			<path style="fill:#FFC3BD;" d="M328.545,211.541l-7.454,2.36l5.791,5.762c0,0,6.762-2.934,4.642-5.914L328.545,211.541z"/>
			<polygon style="fill:#FFC3BD;" points="318.018,220.479 323.331,223.696 326.882,219.663 321.091,213.901 			"/>
		</g>
	</g>
</g>
</svg>
